<svg xmlns="http://www.w3.org/2000/svg" xmlns:xlink="http://www.w3.org/1999/xlink" width="500" zoomAndPan="magnify" viewBox="0 0 375 374.999991" height="500" preserveAspectRatio="xMidYMid meet" version="1.2"><defs/><g id="4c840c6352"><g style="fill:#4a90e2;fill-opacity:1;"><g transform="translate(-2.968159, 284.277067)"><path style="stroke:none" d="M 20.953125 -3.796875 L 20.953125 -8.1875 C 20.953125 -10.707031 19.6875 -11.96875 17.15625 -11.96875 L 12.765625 -11.96875 C 10.242188 -11.96875 8.984375 -13.234375 8.984375 -15.765625 L 8.984375 -50.09375 C 8.984375 -52.613281 10.242188 -53.875 12.765625 -53.875 L 59.0625 -53.875 C 61.59375 -53.875 62.859375 -52.613281 62.859375 -50.09375 L 62.859375 -15.765625 C 62.859375 -13.234375 64.125 -11.96875 66.65625 -11.96875 L 71.03125 -11.96875 C 73.5625 -11.96875 74.828125 -13.234375 74.828125 -15.765625 L 74.828125 -20.15625 C 74.828125 -22.6875 76.09375 -23.953125 78.625 -23.953125 L 85.203125 -23.953125 C 87.734375 -23.953125 89 -25.210938 89 -27.734375 L 89 -75.234375 C 89 -77.753906 87.734375 -79.015625 85.203125 -79.015625 L 80.8125 -79.015625 C 78.289062 -79.015625 77.03125 -80.28125 77.03125 -82.8125 L 77.03125 -87.203125 C 77.03125 -89.734375 75.765625 -91 73.234375 -91 L 38.90625 -91 C 36.382812 -91 35.125 -92.257812 35.125 -94.78125 L 35.125 -99.171875 C 35.125 -101.703125 33.859375 -102.96875 31.328125 -102.96875 L 26.9375 -102.96875 C 24.40625 -102.96875 23.140625 -104.226562 23.140625 -106.75 L 23.140625 -110.953125 C 23.140625 -113.609375 21.8125 -114.9375 19.15625 -114.9375 L 15.171875 -114.9375 C 12.503906 -114.9375 11.171875 -116.269531 11.171875 -118.9375 L 11.171875 -158.84375 C 11.171875 -161.5 12.503906 -162.828125 15.171875 -162.828125 L 19.15625 -162.828125 C 21.8125 -162.828125 23.140625 -164.160156 23.140625 -166.828125 L 23.140625 -171.015625 C 23.140625 -173.535156 24.40625 -174.796875 26.9375 -174.796875 L 31.328125 -174.796875 C 33.859375 -174.796875 35.125 -176.0625 35.125 -178.59375 L 35.125 -182.984375 C 35.125 -185.515625 36.382812 -186.78125 38.90625 -186.78125 L 113.140625 -186.78125 C 115.671875 -186.78125 116.9375 -185.515625 116.9375 -182.984375 L 116.9375 -178.59375 C 116.9375 -176.0625 118.195312 -174.796875 120.71875 -174.796875 L 135.09375 -174.796875 C 137.625 -174.796875 138.890625 -173.535156 138.890625 -171.015625 L 138.890625 -136.6875 C 138.890625 -134.15625 137.625 -132.890625 135.09375 -132.890625 L 104.765625 -132.890625 C 102.234375 -132.890625 100.96875 -134.15625 100.96875 -136.6875 L 100.96875 -141.078125 C 100.96875 -143.609375 99.703125 -144.875 97.171875 -144.875 L 92.796875 -144.875 C 90.265625 -144.875 89 -146.132812 89 -148.65625 L 89 -171.015625 C 89 -173.535156 87.734375 -174.796875 85.203125 -174.796875 L 80.8125 -174.796875 C 78.289062 -174.796875 77.03125 -173.535156 77.03125 -171.015625 L 77.03125 -166.625 C 77.03125 -164.09375 75.765625 -162.828125 73.234375 -162.828125 L 68.84375 -162.828125 C 66.3125 -162.828125 65.046875 -161.5625 65.046875 -159.03125 L 65.046875 -118.734375 C 65.046875 -116.203125 66.3125 -114.9375 68.84375 -114.9375 L 75.234375 -114.9375 C 77.753906 -114.9375 79.015625 -113.671875 79.015625 -111.140625 L 79.015625 -106.75 C 79.015625 -104.226562 80.28125 -102.96875 82.8125 -102.96875 L 115.140625 -102.96875 C 117.671875 -102.96875 118.9375 -101.703125 118.9375 -99.171875 L 118.9375 -94.78125 C 118.9375 -92.257812 120.195312 -91 122.71875 -91 L 127.109375 -91 C 129.640625 -91 130.90625 -89.734375 130.90625 -87.203125 L 130.90625 -83.015625 C 130.90625 -80.347656 132.234375 -79.015625 134.890625 -79.015625 L 138.890625 -79.015625 C 141.546875 -79.015625 142.875 -77.6875 142.875 -75.03125 L 142.875 -27.9375 C 142.875 -25.28125 141.546875 -23.953125 138.890625 -23.953125 L 134.890625 -23.953125 C 132.234375 -23.953125 130.90625 -22.617188 130.90625 -19.953125 L 130.90625 -15.765625 C 130.90625 -13.234375 129.640625 -11.96875 127.109375 -11.96875 L 122.71875 -11.96875 C 120.195312 -11.96875 118.9375 -10.707031 118.9375 -8.1875 L 118.9375 -3.796875 C 118.9375 -1.265625 117.738281 0 115.34375 0 L 24.546875 0 C 22.148438 0 20.953125 -1.265625 20.953125 -3.796875 Z M 20.953125 -3.796875 "/></g></g><g style="fill:#4a90e2;fill-opacity:1;"><g transform="translate(143.694087, 284.277067)"><path style="stroke:none" d="M 13.96875 -3.796875 L 13.96875 -135.09375 C 13.96875 -137.625 15.234375 -138.890625 17.765625 -138.890625 L 24.34375 -138.890625 C 26.875 -138.890625 28.140625 -140.148438 28.140625 -142.671875 L 28.140625 -147.0625 C 28.140625 -149.59375 29.398438 -150.859375 31.921875 -150.859375 L 36.3125 -150.859375 C 38.84375 -150.859375 40.109375 -152.125 40.109375 -154.65625 L 40.109375 -159.03125 C 40.109375 -161.5625 41.375 -162.828125 43.90625 -162.828125 L 48.296875 -162.828125 C 50.816406 -162.828125 52.078125 -164.09375 52.078125 -166.625 L 52.078125 -171.015625 C 52.078125 -173.535156 53.34375 -174.796875 55.875 -174.796875 L 57.875 -174.796875 C 60.394531 -174.796875 61.65625 -176.0625 61.65625 -178.59375 L 61.65625 -182.984375 C 61.65625 -185.515625 62.921875 -186.78125 65.453125 -186.78125 L 129.90625 -186.78125 C 132.4375 -186.78125 133.703125 -185.515625 133.703125 -182.984375 L 133.703125 -178.59375 C 133.703125 -176.0625 134.960938 -174.796875 137.484375 -174.796875 L 141.875 -174.796875 C 144.40625 -174.796875 145.671875 -173.535156 145.671875 -171.015625 L 145.671875 -3.796875 C 145.671875 -1.265625 144.40625 0 141.875 0 L 95.578125 0 C 93.054688 0 91.796875 -1.265625 91.796875 -3.796875 L 91.796875 -67.25 C 91.796875 -69.769531 90.53125 -71.03125 88 -71.03125 L 83.609375 -71.03125 C 81.078125 -71.03125 79.8125 -69.769531 79.8125 -67.25 L 79.8125 -62.859375 C 79.8125 -60.328125 78.550781 -59.0625 76.03125 -59.0625 L 71.640625 -59.0625 C 69.109375 -59.0625 67.84375 -57.800781 67.84375 -55.28125 L 67.84375 -3.796875 C 67.84375 -1.265625 66.578125 0 64.046875 0 L 17.765625 0 C 15.234375 0 13.96875 -1.265625 13.96875 -3.796875 Z M 71.640625 -81.8125 L 76.03125 -81.8125 C 78.550781 -81.8125 79.8125 -83.078125 79.8125 -85.609375 L 79.8125 -90 C 79.8125 -92.519531 81.078125 -93.78125 83.609375 -93.78125 L 88 -93.78125 C 90.53125 -93.78125 91.796875 -95.046875 91.796875 -97.578125 L 91.796875 -171.015625 C 91.796875 -173.535156 90.53125 -174.796875 88 -174.796875 L 83.609375 -174.796875 C 81.078125 -174.796875 79.8125 -173.535156 79.8125 -171.015625 L 79.8125 -166.625 C 79.8125 -164.09375 78.550781 -162.828125 76.03125 -162.828125 L 71.640625 -162.828125 C 69.109375 -162.828125 67.84375 -161.5625 67.84375 -159.03125 L 67.84375 -85.609375 C 67.84375 -83.078125 69.109375 -81.8125 71.640625 -81.8125 Z M 71.640625 -81.8125 "/></g></g><g style="fill:#4a90e2;fill-opacity:1;"><g transform="translate(296.143022, 284.277067)"><path style="stroke:none" d="M 13.96875 -3.796875 L 13.96875 -135.890625 C 13.96875 -138.421875 15.234375 -139.6875 17.765625 -139.6875 L 64.046875 -139.6875 C 66.578125 -139.6875 67.84375 -138.421875 67.84375 -135.890625 L 67.84375 -3.796875 C 67.84375 -1.265625 66.578125 0 64.046875 0 L 17.765625 0 C 15.234375 0 13.96875 -1.265625 13.96875 -3.796875 Z M 19.953125 -155.453125 L 19.953125 -155.84375 C 19.953125 -158.375 18.554688 -159.640625 15.765625 -159.640625 C 13.234375 -159.640625 11.96875 -160.898438 11.96875 -163.421875 L 11.96875 -181.78125 C 11.96875 -184.3125 13.363281 -185.578125 16.15625 -185.578125 C 18.6875 -185.578125 19.953125 -186.972656 19.953125 -189.765625 C 19.953125 -192.296875 21.21875 -193.5625 23.75 -193.5625 L 58.0625 -193.5625 C 60.59375 -193.5625 61.859375 -192.164062 61.859375 -189.375 C 61.859375 -186.84375 63.253906 -185.578125 66.046875 -185.578125 C 68.578125 -185.578125 69.84375 -184.3125 69.84375 -181.78125 L 69.84375 -163.421875 C 69.84375 -160.898438 68.445312 -159.640625 65.65625 -159.640625 C 63.125 -159.640625 61.859375 -158.242188 61.859375 -155.453125 C 61.859375 -152.921875 60.59375 -151.65625 58.0625 -151.65625 L 23.75 -151.65625 C 21.21875 -151.65625 19.953125 -152.921875 19.953125 -155.453125 Z M 19.953125 -155.453125 "/></g></g></g></svg>